<svg id="Layer_1" data-name="Layer 1" xmlns="http://www.w3.org/2000/svg" viewBox="0 0 510.5 79.78"><defs><style>.cls-1{fill:#8cc63f;stroke:gray;}.cls-1,.cls-2{stroke-width:0.25px;}.cls-2{fill:#CCCCCC;stroke:#999;}</style></defs><path class="cls-1" d="M264.9,24.35h10.7l-.28,6.87.23.05q3.27-7.43,13.65-7.43,12.09,0,13.45,8.27h.19q3.14-8.26,13.79-8.27,15.51,0,15.51,15.61V69h-10.7V41.78q0-9.48-7.8-9.48-9.78,0-9.77,10.6V69h-10.7V41.36q0-5.55-1.47-7.31c-1-1.17-3.07-1.75-6.24-1.75q-9.87,0-9.86,10.84V69H264.9Z"/><path class="cls-1" d="M371.86,54.73h10.75v1.73q0,13.08-19.63,13.08-13.31,0-17.43-4.53T341.44,45.8q0-13,4.3-17.52t16.78-4.49q12,0,16,4.37t4.06,17.17v3.28H352.38c-.06,1-.1,1.65-.1,2q0,6.59,2,8.78t8.1,2.2c3.93,0,6.48-.43,7.67-1.29S371.86,57.56,371.86,54.73ZM372,42.06l0-1.77q0-5.32-1.85-6.92t-8-1.59q-6,0-7.78,1.92c-1.2,1.28-1.8,4.06-1.8,8.36Z"/><path class="cls-1" d="M431.31,5.24V69H420.88l.38-7.2-.19,0q-3.13,7.81-13.64,7.81t-14.05-4.84Q389.94,59.92,390,45.1q0-12,3.69-16.61t13.13-4.65q10.94,0,13.65,6.91l.18,0V5.24Zm-21,27.06c-4,0-6.57.84-7.76,2.54s-1.77,5.35-1.77,11q0,9.72,1.77,12.53t7.95,2.8q6.45,0,8.25-2.76t1.8-12.71q0-8.22-2-10.79C417.25,33.15,414.5,32.3,410.32,32.3Z"/><path class="cls-1" d="M452.52,5.24v8.92h-10.7V5.24Zm0,19.11V69h-10.7V24.35Z"/><path class="cls-1" d="M474.16,37.3H463.22q0-8,3.74-10.75t14.82-2.71q12,0,16.3,3.32t4.25,12.66V69H491.64l.51-6.12-.28,0q-3.09,6.67-14.25,6.68-16.22,0-16.22-13.79T478,41.83q11.07,0,13.46,5.09h.19V39.68q0-5.24-1.83-6.94T482.33,31Q474.16,31,474.16,37.3ZM481.31,49q-9.07,0-9.07,6.26c0,2.9.62,4.79,1.87,5.7S478,62.34,482,62.34q9.77,0,9.77-6.59T481.31,49Z"/><path class="cls-2" d="M42.37,37.92H31.91c-.06-.37-.11-.65-.14-.84-.22-2.15-.84-3.49-1.85-4s-3.46-.79-7.36-.79q-8.37,0-8.36,5.42c0,2.46.49,3.92,1.47,4.39s4.3.84,10,1.12q11.45.57,14.9,3T44,56.38q0,8.17-4.6,11.33T22.89,70.87Q11.45,70.87,7.23,68T3,57.36V56.24H14.15a9.13,9.13,0,0,0-.28,1.5q-.66,5.92,9.16,5.93,10.14,0,10.14-5.89,0-5.66-6.36-5.65-14.34,0-18.9-2.71T3.35,38.16q0-7.66,4.16-10.38t16-2.71q11.18,0,15,2.62T42.37,37.92Z"/><path class="cls-2" d="M81.21,56H92v1.73q0,13.08-19.63,13.08Q59,70.82,54.9,66.29T50.79,47.08q0-13,4.3-17.52t16.77-4.49q12,0,16,4.37T92,46.61v3.28H61.72c-.06,1-.09,1.65-.09,2q0,6.59,2,8.78t8.11,2.2c3.92,0,6.48-.43,7.66-1.29S81.21,58.84,81.21,56Zm.09-12.67,0-1.77q0-5.32-1.85-6.92t-8-1.59c-4,0-6.58.64-7.78,1.92s-1.8,4.06-1.8,8.36Z"/><path class="cls-2" d="M111.58,6.52V70.31h-10.7V6.52Z"/><path class="cls-2" d="M159.39,37.92H148.92c-.06-.37-.11-.65-.14-.84-.22-2.15-.83-3.49-1.85-4s-3.46-.79-7.36-.79q-8.35,0-8.36,5.42c0,2.46.49,3.92,1.47,4.39s4.31.84,10,1.12q11.44.57,14.91,3T161,56.38q0,8.17-4.6,11.33T139.9,70.87q-11.44,0-15.65-2.85T120,57.36V56.24h11.12a10.34,10.34,0,0,0-.28,1.5q-.65,5.92,9.16,5.93,10.14,0,10.14-5.89,0-5.66-6.35-5.65-14.36,0-18.9-2.71t-4.56-11.26q0-7.66,4.16-10.38t16-2.71q11.18,0,15,2.62T159.39,37.92Z"/><path class="cls-2" d="M198.22,56H209v1.73q0,13.08-19.63,13.08-13.32,0-17.43-4.53T167.8,47.08q0-13,4.3-17.52t16.77-4.49q12,0,16,4.37T209,46.61v3.28H178.73c-.06,1-.09,1.65-.09,2q0,6.59,2,8.78t8.11,2.2c3.93,0,6.48-.43,7.67-1.29S198.22,58.84,198.22,56Zm.1-12.67,0-1.77q0-5.32-1.85-6.92t-8-1.59q-6,0-7.78,1.92t-1.8,8.36Z"/><path class="cls-2" d="M218.18,25.63h10.7l-.66,6.26.24.05q3.82-7,12-7,11.78,0,11.78,14.86v3.13h-10.1c.13-1.21.19-2,.19-2.38q0-7.15-5.56-7.15-7.94,0-7.94,10.61V70.31h-10.7Z"/></svg>